<svg class="ml-2" width="37" height="16" viewBox="0 0 37 16" fill="none" xmlns="http://www.w3.org/2000/svg">
  <path d="M0 8C0 4.22876 0 2.34315 1.17157 1.17157C2.34315 0 4.22876 0 8 0H29C32.7712 0 34.6569 0 35.8284 1.17157C37 2.34315 37 4.22876 37 8C37 11.7712 37 13.6569 35.8284 14.8284C34.6569 16 32.7712 16 29 16H8C4.22876 16 2.34315 16 1.17157 14.8284C0 13.6569 0 11.7712 0 8Z" fill="#F4E3D5"/>
  <path d="M6.88068 12H9.50852C11.2273 12 11.9375 11.1619 11.9375 10.0682C11.9375 8.91761 11.142 8.29261 10.4744 8.25V8.17898C11.0994 8.00852 11.6534 7.59659 11.6534 6.65909C11.6534 5.59375 10.9432 4.72727 9.4233 4.72727H6.88068V12ZM7.76136 11.2188V8.69034H9.55114C10.5028 8.69034 11.0994 9.32955 11.0994 10.0682C11.0994 10.7074 10.6591 11.2188 9.50852 11.2188H7.76136ZM7.76136 7.9233V5.50852H9.4233C10.3892 5.50852 10.8153 6.01989 10.8153 6.65909C10.8153 7.42614 10.1903 7.9233 9.39489 7.9233H7.76136ZM13.3846 12H17.8306V11.2188H14.2653V8.74716H17.5465V7.96591H14.2653V5.50852H17.7738V4.72727H13.3846V12ZM18.9634 5.50852H21.2504V12H22.131V5.50852H24.418V4.72727H18.9634V5.50852ZM25.2259 12L25.9574 9.94034H28.8977L29.6293 12H30.5526L27.8821 4.72727H26.973L24.3026 12H25.2259ZM26.2344 9.15909L27.3991 5.87784H27.456L28.6207 9.15909H26.2344Z" fill="#B08968"/>
</svg>