<svg width="24" height="24" viewBox="0 0 24 24" fill="none" xmlns="http://www.w3.org/2000/svg">
  <path d="M17.85 16.4401C17.9446 16.534 17.9979 16.6618 17.9979 16.7951C17.9979 16.9284 17.9446 17.0562 17.85 17.1501L17.15 17.8501C17.0561 17.9448 16.9283 17.998 16.795 17.998C16.6617 17.998 16.5339 17.9448 16.44 17.8501L12 13.4101L7.55997 17.8501C7.46609 17.9448 7.33829 17.998 7.20497 17.998C7.07166 17.998 6.94386 17.9448 6.84997 17.8501L6.14997 17.1501C6.05532 17.0562 6.00208 16.9284 6.00208 16.7951C6.00208 16.6618 6.05532 16.534 6.14997 16.4401L10.59 12.0001L6.14997 7.5601C6.05532 7.46621 6.00208 7.33842 6.00208 7.2051C6.00208 7.07178 6.05532 6.94398 6.14997 6.8501L6.84997 6.1501C6.94386 6.05544 7.07166 6.0022 7.20497 6.0022C7.33829 6.0022 7.46609 6.05544 7.55997 6.1501L12 10.5901L16.44 6.1501C16.5339 6.05544 16.6617 6.0022 16.795 6.0022C16.9283 6.0022 17.0561 6.05544 17.15 6.1501L17.85 6.8501C17.9446 6.94398 17.9979 7.07178 17.9979 7.2051C17.9979 7.33842 17.9446 7.46621 17.85 7.5601L13.41 12.0001L17.85 16.4401Z" fill="#A6A6A6"/>
</svg>