<svg width="110" height="30" viewBox="0 0 110 30" fill="none" xmlns="http://www.w3.org/2000/svg">
  <path d="M16.0543 12.5869C15.1902 12.5869 14.508 13.3282 14.508 14.2511C14.508 15.1739 15.2053 15.9152 16.0543 15.9152C16.9184 15.9152 17.6006 15.1739 17.6006 14.2511C17.6006 13.3282 16.9032 12.5869 16.0543 12.5869ZM10.5209 12.5869C9.6568 12.5869 8.97461 13.3282 8.97461 14.2511C8.97461 15.1739 9.67196 15.9152 10.5209 15.9152C11.385 15.9152 12.0672 15.1739 12.0672 14.2511C12.0824 13.3282 11.385 12.5869 10.5209 12.5869Z" fill="white"/>
  <path d="M23.422 0H3.10777C1.39471 0 0 1.39183 0 3.10136V23.3737C0 25.0832 1.39471 26.475 3.10777 26.475H20.2991L19.4956 23.7065L21.4361 25.4917L23.2704 27.171L26.5449 30V3.10136C26.5298 1.39183 25.1351 0 23.422 0ZM17.5703 19.5915C17.5703 19.5915 17.0245 18.941 16.5697 18.3812C18.5557 17.8215 19.3137 16.5961 19.3137 16.5961C18.6921 17.0045 18.1009 17.292 17.5703 17.4887C16.8123 17.8064 16.0846 18.003 15.3721 18.1392C13.9168 18.4115 12.5827 18.3359 11.4457 18.1241C10.5816 17.9576 9.83875 17.7307 9.2172 17.4735C8.86852 17.3374 8.48953 17.171 8.11053 16.9592C8.06505 16.9289 8.01957 16.9138 7.97409 16.8835C7.94377 16.8684 7.92861 16.8533 7.91345 16.8533C7.64057 16.702 7.48898 16.5961 7.48898 16.5961C7.48898 16.5961 8.21665 17.7912 10.142 18.3661C9.68716 18.941 9.12624 19.6067 9.12624 19.6067C5.77591 19.5008 4.50248 17.3222 4.50248 17.3222C4.50248 12.4962 6.6855 8.57791 6.6855 8.57791C8.86852 6.95915 10.9303 7.00454 10.9303 7.00454L11.0819 7.18608C8.35309 7.95764 7.10998 9.1528 7.10998 9.1528C7.10998 9.1528 7.44349 8.97126 8.00441 8.7292C9.62652 8.01816 10.9151 7.83661 11.4457 7.7761C11.5367 7.76097 11.6125 7.74584 11.7034 7.74584C12.6282 7.62481 13.6742 7.59455 14.7657 7.71558C16.2059 7.882 17.7522 8.3056 19.3288 9.1528C19.3288 9.1528 18.1312 8.01816 15.554 7.2466L15.7663 7.00454C15.7663 7.00454 17.8432 6.95915 20.011 8.57791C20.011 8.57791 22.194 12.4962 22.194 17.3222C22.194 17.3071 20.9206 19.4856 17.5703 19.5915ZM40.4617 6.47504H35.4286V12.118L38.7789 15.1286V9.65204H40.5678C41.7048 9.65204 42.2657 10.1967 42.2657 11.0741V15.2648C42.2657 16.1422 41.7351 16.7322 40.5678 16.7322H35.4135V19.9244H40.4465C43.145 19.9395 45.6767 18.593 45.6767 15.5068V10.9985C45.6918 7.85174 43.1601 6.47504 40.4617 6.47504ZM66.8399 15.5068V10.8775C66.8399 9.21331 69.8415 8.8351 70.7511 10.4992L73.5254 9.37973C72.4339 6.98941 70.4479 6.2935 68.7955 6.2935C66.097 6.2935 63.4289 7.85174 63.4289 10.8775V15.5068C63.4289 18.5628 66.097 20.0908 68.7348 20.0908C70.4327 20.0908 72.4642 19.2587 73.586 17.0802L70.6147 15.7186C69.887 17.5794 66.8399 17.1256 66.8399 15.5068ZM57.6681 11.5129C56.6221 11.2859 55.9248 10.9077 55.8793 10.2572C55.9399 8.69894 58.3503 8.63843 59.7602 10.1362L61.9887 8.42663C60.594 6.73222 59.0174 6.27837 57.3953 6.27837C54.9242 6.27837 52.5289 7.6702 52.5289 10.3026C52.5289 12.8593 54.4997 14.236 56.6676 14.5688C57.7743 14.7201 59.0022 15.1589 58.9719 15.9153C58.8809 17.3525 55.9096 17.2769 54.5604 15.643L52.4077 17.6551C53.6659 19.2738 55.379 20.0908 56.9859 20.0908C59.457 20.0908 62.2009 18.6687 62.3071 16.0666C62.4587 12.7837 60.0634 11.9516 57.6681 11.5129ZM47.511 19.9092H50.9068V6.47504H47.511V19.9092ZM104.77 6.47504H99.7368V12.118L103.087 15.1286V9.65204H104.876C106.013 9.65204 106.574 10.1967 106.574 11.0741V15.2648C106.574 16.1422 106.043 16.7322 104.876 16.7322H99.7216V19.9244H104.77C107.468 19.9395 110 18.593 110 15.5068V10.9985C110 7.85174 107.468 6.47504 104.77 6.47504ZM80.0744 6.2935C77.285 6.2935 74.5108 7.80635 74.5108 10.9077V15.4917C74.5108 18.5628 77.3002 20.1059 80.1047 20.1059C82.8941 20.1059 85.6684 18.5628 85.6684 15.4917V10.9077C85.6684 7.82148 82.8638 6.2935 80.0744 6.2935ZM82.2574 15.4917C82.2574 16.4599 81.1659 16.9592 80.0896 16.9592C78.9981 16.9592 77.9066 16.4902 77.9066 15.4917V10.9077C77.9066 9.92436 78.9677 9.39486 80.0289 9.39486C81.1356 9.39486 82.2574 9.86384 82.2574 10.9077V15.4917ZM97.8569 10.9077C97.7811 7.76097 95.6284 6.49017 92.8542 6.49017H87.4724V19.9244H90.9137V15.6581H91.5201L94.6431 19.9244H98.8878L95.2191 15.3101C96.8412 14.7958 97.8569 13.3888 97.8569 10.9077ZM92.9148 12.7231H90.9137V9.65204H92.9148C95.0524 9.65204 95.0524 12.7231 92.9148 12.7231Z" fill="white"/>
</svg>