<svg class="mx-auto inline-block" width="52" height="52" viewBox="0 0 52 52" fill="none" xmlns="http://www.w3.org/2000/svg">
  <path opacity="0.4" d="M38.0335 15.8091C43.344 15.8091 47.6665 20.272 47.6665 25.7572L47.6665 36.6605C47.6665 42.1323 43.3548 46.584 38.0552 46.584L13.9705 46.584C8.65784 46.584 4.33318 42.1234 4.33318 36.6381L4.33318 25.7348C4.33318 20.263 8.64701 15.8091 13.9488 15.8091H15.9855L38.0335 15.8091Z" fill="#B08968"/>
  <path d="M27.1834 34.748L33.4862 28.3176C34.1362 27.6529 34.1362 26.5834 33.4819 25.921C32.8275 25.2608 31.7724 25.263 31.1224 25.9254L27.6709 29.4465L27.6709 7.11154C27.6709 6.17624 26.9234 5.41699 26.0004 5.41699C25.0795 5.41699 24.3342 6.17624 24.3342 7.11154L24.3342 29.4465L20.8805 25.9254C20.2305 25.263 19.1754 25.2608 18.521 25.921C18.1939 26.2533 18.0292 26.6868 18.0292 27.1226C18.0292 27.5539 18.1939 27.9874 18.5167 28.3176L24.8195 34.748C25.1337 35.0671 25.5584 35.2476 26.0004 35.2476C26.4445 35.2476 26.8692 35.0671 27.1834 34.748Z" fill="#B08968"/>
</svg>