<svg width="20" height="20" viewBox="0 0 20 20" fill="none" xmlns="http://www.w3.org/2000/svg">
<path d="M12.1083 7.89166L7.89166 12.1083C7.35 11.5667 7.01666 10.825 7.01666 10C7.01666 8.35 8.35 7.01666 10 7.01666C10.825 7.01666 11.5667 7.35 12.1083 7.89166Z" stroke="#CFCFCF" stroke-width="1.5" stroke-linecap="round" stroke-linejoin="round"/>
<path d="M14.85 4.80833C13.3917 3.70833 11.725 3.10833 9.99999 3.10833C7.05833 3.10833 4.31666 4.84166 2.40833 7.84166C1.65833 9.01666 1.65833 10.9917 2.40833 12.1667C3.06666 13.2 3.83333 14.0917 4.66666 14.8083" stroke="#CFCFCF" stroke-width="1.5" stroke-linecap="round" stroke-linejoin="round"/>
<path d="M7.01666 16.275C7.96666 16.675 8.975 16.8917 10 16.8917C12.9417 16.8917 15.6833 15.1583 17.5917 12.1583C18.3417 10.9833 18.3417 9.00834 17.5917 7.83334C17.3167 7.4 17.0167 6.99167 16.7083 6.60834" stroke="#CFCFCF" stroke-width="1.5" stroke-linecap="round" stroke-linejoin="round"/>
<path d="M12.925 10.5833C12.7083 11.7583 11.75 12.7167 10.575 12.9333" stroke="#CFCFCF" stroke-width="1.5" stroke-linecap="round" stroke-linejoin="round"/>
<path d="M7.89169 12.1083L1.66669 18.3333" stroke="#CFCFCF" stroke-width="1.5" stroke-linecap="round" stroke-linejoin="round"/>
<path d="M18.3333 1.66666L12.1083 7.89166" stroke="#CFCFCF" stroke-width="1.5" stroke-linecap="round" stroke-linejoin="round"/>
</svg>
