<svg width="20" height="20" viewBox="0 0 20 20" fill="none" xmlns="http://www.w3.org/2000/svg">
<path d="M12.985 9.99994C12.985 11.6499 11.6516 12.9833 10.0016 12.9833C8.35164 12.9833 7.01831 11.6499 7.01831 9.99994C7.01831 8.34993 8.35164 7.0166 10.0016 7.0166C11.6516 7.0166 12.985 8.34993 12.985 9.99994Z" stroke="#A6A6A6" stroke-width="1.5" stroke-linecap="round" stroke-linejoin="round"/>
<path d="M10.0001 16.8917C12.9418 16.8917 15.6834 15.1583 17.5918 12.1583C18.3418 10.9833 18.3418 9.00833 17.5918 7.83333C15.6834 4.83333 12.9418 3.1 10.0001 3.1C7.05845 3.1 4.31678 4.83333 2.40845 7.83333C1.65845 9.00833 1.65845 10.9833 2.40845 12.1583C4.31678 15.1583 7.05845 16.8917 10.0001 16.8917Z" stroke="#A6A6A6" stroke-width="1.5" stroke-linecap="round" stroke-linejoin="round"/>
</svg>
