<svg width="24" height="24" viewBox="0 0 24 24" fill="none" xmlns="http://www.w3.org/2000/svg">
  <path d="M6.61289 10.2121C6.9872 9.07963 7.70958 8.09432 8.67698 7.39671C9.64439 6.6991 10.8074 6.32482 12.0001 6.32727C13.3521 6.32727 14.5745 6.80727 15.5345 7.59287L18.3281 4.80007C16.6257 3.31607 14.4441 2.40007 12.0001 2.40007C8.21609 2.40007 4.95849 4.55847 3.39209 7.72007L6.61289 10.2121Z" fill="#E72626"/>
  <path d="M15.2321 16.8105C14.3601 17.3729 13.2529 17.6729 12.0001 17.6729C10.8122 17.6754 9.65355 17.3041 8.6883 16.6116C7.72305 15.9192 7.00006 14.9406 6.62171 13.8145L3.38971 16.2681C4.18271 17.8732 5.40992 19.2236 6.93197 20.1662C8.45401 21.1087 10.2099 21.6055 12.0001 21.6001C14.3465 21.6001 16.5881 20.7657 18.2673 19.2001L15.2329 16.8105H15.2321Z" fill="#34A853"/>
  <path d="M18.2673 19.2C20.0233 17.5616 21.1633 15.1232 21.1633 12C21.1633 11.432 21.0761 10.8216 20.9457 10.2544H12.0001V13.964H17.1489C16.8953 15.2112 16.2129 16.1768 15.2329 16.8104L18.2673 19.2Z" fill="#3C94FF"/>
  <path d="M6.62169 13.8144C6.42597 13.2295 6.32654 12.6168 6.32729 12C6.32729 11.3744 6.42729 10.7736 6.61289 10.212L3.39209 7.72002C2.73319 9.05017 2.39353 10.5156 2.40009 12C2.40009 13.536 2.75609 14.984 3.38969 16.268L6.62169 13.8144Z" fill="#FBBC05"/>
</svg>