<svg width="28" height="28" viewBox="0 0 28 28" fill="none" xmlns="http://www.w3.org/2000/svg">
  <path d="M15.7955 18.2C19.8934 18.2 24.9769 16.1425 27.9954 14.3601C27.9985 14.2405 28 14.1204 28 14C28 10.2048 26.481 6.76238 24.0145 4.24072C23.7645 4.61045 23.5031 5.01349 23.2259 5.44094C22.4643 6.61549 21.583 7.97444 20.4895 9.33336C18.6472 11.6228 11.1296 18.6676 0 16.1453C0.359254 18.4679 1.29268 20.6023 2.65166 22.4008C3.59047 21.1563 8.66052 18.2 15.7955 18.2Z" fill="#E6CCB2"/>
  <path d="M4.69409 24.336C4.73043 24.3134 4.7672 24.2903 4.8044 24.2667C8.45626 21.9564 13.0326 21.4588 16.5719 21.0739C18.0369 20.9146 19.3242 20.7746 20.2948 20.5334C22.9345 19.8773 25.6516 18.9906 27.6308 18.1975C25.8371 23.8788 20.4989 28.0001 14.1925 28.0001C10.5323 28.0001 7.19829 26.6118 4.69409 24.336Z" fill="#B08968"/>
  <path d="M14.0724 0C16.9964 0 19.7122 0.885962 21.9631 2.4026C21.3821 2.87275 21.0287 3.53491 20.5896 4.35791C19.6869 6.04939 18.4217 8.42028 14.0723 11.2C9.75167 13.9614 5.87487 13.7599 2.8067 13.6005C2.14157 13.5659 1.51444 13.5333 0.929026 13.5333C0.631107 13.5114 0.319178 13.4912 0 13.4734C0.278523 5.98541 6.47237 0 14.0724 0Z" fill="#EDE0D4"/>
</svg>