<svg width="70" height="70" viewBox="0 0 70 70" fill="none" xmlns="http://www.w3.org/2000/svg">
  <circle opacity="0.2" cx="35" cy="35" r="35" fill="#B08968"/>
  <path opacity="0.4" d="M50.8332 41.2387C50.8332 45.6562 47.2865 49.2345 42.869 49.2503H42.8532H27.1623C22.7607 49.2503 19.1665 45.6878 19.1665 41.2703V41.2545C19.1665 41.2545 19.176 34.2467 19.1887 30.7222C19.1903 30.0603 19.9503 29.6898 20.468 30.1015C24.23 33.0861 30.9576 38.528 31.0415 38.5992C32.1657 39.5002 33.5907 40.0084 35.0473 40.0084C36.504 40.0084 37.929 39.5002 39.0532 38.5818C39.1371 38.5264 45.7143 33.2476 49.5333 30.2139C50.0526 29.8007 50.8158 30.1712 50.8173 30.8314C50.8332 34.329 50.8332 41.2387 50.8332 41.2387Z" fill="#B08968"/>
  <path d="M50.0039 24.9833C48.6327 22.3993 45.9347 20.7495 42.9644 20.7495H27.1627C24.1924 20.7495 21.4944 22.3993 20.1232 24.9833C19.8161 25.5613 19.9617 26.2817 20.4731 26.6902L32.2294 36.0936C33.0527 36.7586 34.0502 37.0895 35.0477 37.0895C35.0541 37.0895 35.0588 37.0895 35.0636 37.0895C35.0683 37.0895 35.0746 37.0895 35.0794 37.0895C36.0769 37.0895 37.0744 36.7586 37.8977 36.0936L49.654 26.6902C50.1654 26.2817 50.3111 25.5613 50.0039 24.9833Z" fill="#B08968"/>
</svg>