<svg width="52" height="52" viewBox="0 0 52 52" fill="none" xmlns="http://www.w3.org/2000/svg">
<path opacity="0.4" d="M46.4257 5.58648C45.3424 4.47931 43.7391 4.06981 42.2441 4.50314L7.38242 14.576C5.80508 15.0136 4.68708 16.2638 4.38592 17.8498C4.07825 19.4661 5.15292 21.5201 6.55692 22.3781L17.4574 29.0341C18.5754 29.7188 20.0184 29.5476 20.9436 28.6203L33.4258 16.1381C34.0541 15.486 35.0941 15.486 35.7224 16.1381C36.3507 16.7643 36.3507 17.7848 35.7224 18.4348L23.2186 30.917C22.2913 31.8443 22.1179 33.283 22.8004 34.4031L29.4607 45.3448C30.2407 46.6426 31.5841 47.3815 33.0574 47.3815C33.2308 47.3815 33.4258 47.3815 33.5991 47.3576C35.2891 47.1431 36.6324 45.9926 37.1307 44.3676L47.4658 9.76814C47.9207 8.29481 47.5091 6.69148 46.4257 5.58648Z" fill="#B08968"/>
<path fill-rule="evenodd" clip-rule="evenodd" d="M6.5229 36.417C6.1069 36.417 5.6909 36.2588 5.37456 35.9403C4.73973 35.3055 4.73973 34.2785 5.37456 33.6436L8.33206 30.684C8.9669 30.0513 9.99606 30.0513 10.6309 30.684C11.2636 31.3188 11.2636 32.348 10.6309 32.9828L7.67123 35.9403C7.3549 36.2588 6.9389 36.417 6.5229 36.417ZM14.6728 39.0007C14.2568 39.0007 13.8408 38.8425 13.5245 38.524C12.8897 37.8892 12.8897 36.8622 13.5245 36.2273L16.482 33.2677C17.1168 32.635 18.146 32.635 18.7808 33.2677C19.4135 33.9025 19.4135 34.9317 18.7808 35.5665L15.8212 38.524C15.5048 38.8425 15.0888 39.0007 14.6728 39.0007ZM15.2216 46.7313C15.5379 47.0498 15.9539 47.2079 16.3699 47.2079C16.7859 47.2079 17.2019 47.0498 17.5182 46.7313L20.4779 43.7738C21.1106 43.1389 21.1106 42.1098 20.4779 41.4749C19.8431 40.8423 18.8139 40.8423 18.1791 41.4749L15.2216 44.4346C14.5867 45.0694 14.5867 46.0964 15.2216 46.7313Z" fill="#B08968"/>
</svg>
