  <svg width="70" height="70" viewBox="0 0 70 70" fill="none" xmlns="http://www.w3.org/2000/svg">
    <circle opacity="0.2" cx="35" cy="35" r="35" fill="#B08968"/>
    <path fill-rule="evenodd" clip-rule="evenodd" d="M50.8275 29.2606H44.1227C41.0024 29.2661 38.4747 31.7306 38.4691 34.7729C38.4649 37.822 40.9954 40.2975 44.1227 40.3016H50.8332V40.786C50.8332 46.1048 47.6088 49.25 42.1523 49.25H27.8488C22.3909 49.25 19.1665 46.1048 19.1665 40.786V29.2016C19.1665 23.8828 22.3909 20.75 27.8488 20.75H42.1467C47.6032 20.75 50.8275 23.8828 50.8275 29.2016V29.2606ZM26.6707 29.2483H35.6007H35.6063H35.6176C36.2861 29.2456 36.8265 28.7145 36.8237 28.0613C36.8209 27.4095 36.2748 26.8826 35.6063 26.8853H26.6707C26.0064 26.8881 25.4673 27.4136 25.4645 28.0627C25.4617 28.7145 26.0021 29.2456 26.6707 29.2483Z" fill="#B08968"/>
    <path opacity="0.4" d="M41.3922 35.4698C41.7233 36.9758 43.0438 38.0354 44.5513 38.0079H49.697C50.3242 38.0079 50.833 37.4884 50.833 36.8463V32.838C50.8317 32.1973 50.3242 31.6764 49.697 31.675H44.4301C42.7153 31.6806 41.3303 33.1039 41.333 34.858C41.333 35.0633 41.3532 35.2686 41.3922 35.4698Z" fill="#B08968"/>
    <ellipse cx="44.4998" cy="34.8416" rx="1.58333" ry="1.58333" fill="#B08968"/>
  </svg>